<svg xmlns="http://www.w3.org/2000/svg" width="48" height="48" viewBox="0 0 48 48"><defs><linearGradient id="g" x1="0" y1="0" x2="0" y2="1"><stop offset="0" stop-color="#1F1F23"/><stop offset="1" stop-color="#111113"/></linearGradient></defs><rect x="0.5" y="0.5" width="47" height="47" rx="12" fill="url(#g)" stroke="#34343B"/><g transform="translate(12 12)" fill="none" stroke="#CCFF00" stroke-width="2" stroke-linecap="round" stroke-linejoin="round">
  <path d="M12 5v16" />
  <path d="M16 13h2" />
  <path d="M16 9h2" />
  <path d="M20.001 19A2 2 0 0022 17V5a2 2 0 00-1.999-2L16 3.002A5 5 0 0012 5a5 5 0 00-4-2H4a2 2 0 00-2 2v12a2 2 0 001.999 2H8a5 5 0 014 2 5 5 0 014-2z" />
  <path d="M6 13h2" />
  <path d="M6 9h2" />
</g></svg>